<mxfile host="65bd71144e">
    <diagram name="Complete Use Case" id="complete-usecase">
        <mxGraphModel dx="324" dy="209" grid="1" gridSize="10" guides="1" tooltips="1" connect="1" arrows="1" fold="1" page="1" pageScale="1" pageWidth="1400" pageHeight="1000" math="0" shadow="0">
            <root>
                <mxCell id="0"/>
                <mxCell id="1" parent="0"/>
                <mxCell id="title" value="USE CASE DIAGRAM - SISTEM FASHION PARK" style="text;html=1;strokeColor=none;fillColor=none;align=center;verticalAlign=middle;whiteSpace=wrap;rounded=0;fontSize=18;fontStyle=1;fontColor=#000000;" parent="1" vertex="1">
                    <mxGeometry x="500" y="20" width="400" height="40" as="geometry"/>
                </mxCell>
                <mxCell id="actor1" value="PEMILIK&#10;(OWNER)" style="shape=umlActor;verticalLabelPosition=bottom;verticalAlign=top;html=1;outlineConnect=0;fillColor=#ffffff;strokeColor=#000000;fontColor=#000000;" parent="1" vertex="1">
                    <mxGeometry x="50" y="100" width="30" height="60" as="geometry"/>
                </mxCell>
                <mxCell id="actor2" value="ADMIN" style="shape=umlActor;verticalLabelPosition=bottom;verticalAlign=top;html=1;outlineConnect=0;fillColor=#ffffff;strokeColor=#000000;fontColor=#000000;" parent="1" vertex="1">
                    <mxGeometry x="50" y="200" width="30" height="60" as="geometry"/>
                </mxCell>
                <mxCell id="actor3" value="KASIR" style="shape=umlActor;verticalLabelPosition=bottom;verticalAlign=top;html=1;outlineConnect=0;fillColor=#ffffff;strokeColor=#000000;" parent="1" vertex="1">
                    <mxGeometry x="50" y="300" width="30" height="60" as="geometry"/>
                </mxCell>
                <mxCell id="actor4" value="PELANGGAN" style="shape=umlActor;verticalLabelPosition=bottom;verticalAlign=top;html=1;outlineConnect=0;fillColor=#ffffff;strokeColor=#000000;" parent="1" vertex="1">
                    <mxGeometry x="50" y="400" width="30" height="60" as="geometry"/>
                </mxCell>
                <mxCell id="system" value="SISTEM FASHION PARK" style="rounded=1;whiteSpace=wrap;html=1;fillColor=#ffffff;strokeColor=#000000;fontSize=14;fontStyle=1;" parent="1" vertex="1">
                    <mxGeometry x="150" y="80" width="1200" height="800" as="geometry"/>
                </mxCell>
                <mxCell id="kpi_main" value="Dashboard KPI" style="ellipse;whiteSpace=wrap;html=1;fillColor=#ffffff;strokeColor=#000000;fontSize=11;" parent="1" vertex="1">
                    <mxGeometry x="200" y="120" width="120" height="60" as="geometry"/>
                </mxCell>
                <mxCell id="report_main" value="Laporan Penjualan" style="ellipse;whiteSpace=wrap;html=1;fillColor=#ffffff;strokeColor=#000000;fontSize=11;" parent="1" vertex="1">
                    <mxGeometry x="400" y="120" width="120" height="60" as="geometry"/>
                </mxCell>
                <mxCell id="history_main" value="Riwayat Transaksi" style="ellipse;whiteSpace=wrap;html=1;fillColor=#ffffff;strokeColor=#000000;fontSize=11;" parent="1" vertex="1">
                    <mxGeometry x="600" y="120" width="120" height="60" as="geometry"/>
                </mxCell>
                <mxCell id="perf_main" value="Analisis Performa" style="ellipse;whiteSpace=wrap;html=1;fillColor=#ffffff;strokeColor=#000000;fontSize=11;" parent="1" vertex="1">
                    <mxGeometry x="800" y="120" width="120" height="60" as="geometry"/>
                </mxCell>
                <mxCell id="stats_main" value="Dashboard Statistik" style="ellipse;whiteSpace=wrap;html=1;fillColor=#ffffff;strokeColor=#000000;fontSize=11;" parent="1" vertex="1">
                    <mxGeometry x="200" y="220" width="120" height="60" as="geometry"/>
                </mxCell>
                <mxCell id="order_main" value="Kelola Pesanan" style="ellipse;whiteSpace=wrap;html=1;fillColor=#ffffff;strokeColor=#000000;fontSize=11;" parent="1" vertex="1">
                    <mxGeometry x="400" y="220" width="120" height="60" as="geometry"/>
                </mxCell>
                <mxCell id="user_main" value="Kelola User" style="ellipse;whiteSpace=wrap;html=1;fillColor=#ffffff;strokeColor=#000000;fontSize=11;" parent="1" vertex="1">
                    <mxGeometry x="600" y="220" width="120" height="60" as="geometry"/>
                </mxCell>
                <mxCell id="category_main" value="Kelola Kategori" style="ellipse;whiteSpace=wrap;html=1;fillColor=#ffffff;strokeColor=#000000;fontSize=11;" parent="1" vertex="1">
                    <mxGeometry x="800" y="220" width="120" height="60" as="geometry"/>
                </mxCell>
                <mxCell id="search_main" value="Pencarian Barang" style="ellipse;whiteSpace=wrap;html=1;fillColor=#ffffff;strokeColor=#000000;fontSize=11;" parent="1" vertex="1">
                    <mxGeometry x="200" y="320" width="120" height="60" as="geometry"/>
                </mxCell>
                <mxCell id="transaction_main" value="Proses Transaksi" style="ellipse;whiteSpace=wrap;html=1;fillColor=#ffffff;strokeColor=#000000;fontSize=11;" parent="1" vertex="1">
                    <mxGeometry x="400" y="320" width="120" height="60" as="geometry"/>
                </mxCell>
                <mxCell id="barcode_main" value="Scan Barcode" style="ellipse;whiteSpace=wrap;html=1;fillColor=#ffffff;strokeColor=#000000;fontSize=11;" parent="1" vertex="1">
                    <mxGeometry x="600" y="320" width="120" height="60" as="geometry"/>
                </mxCell>
                <mxCell id="stock_main" value="Lihat Stok" style="ellipse;whiteSpace=wrap;html=1;fillColor=#ffffff;strokeColor=#000000;fontSize=11;" parent="1" vertex="1">
                    <mxGeometry x="800" y="320" width="120" height="60" as="geometry"/>
                </mxCell>
                <mxCell id="total_main" value="Hitung Total" style="ellipse;whiteSpace=wrap;html=1;fillColor=#ffffff;strokeColor=#000000;fontSize=11;" parent="1" vertex="1">
                    <mxGeometry x="1000" y="320" width="120" height="60" as="geometry"/>
                </mxCell>
                <mxCell id="receipt_main" value="Print Struk" style="ellipse;whiteSpace=wrap;html=1;fillColor=#ffffff;strokeColor=#000000;fontSize=11;" parent="1" vertex="1">
                    <mxGeometry x="1200" y="320" width="120" height="60" as="geometry"/>
                </mxCell>
                <mxCell id="register_main" value="Registrasi" style="ellipse;whiteSpace=wrap;html=1;fillColor=#ffffff;strokeColor=#000000;fontSize=11;" parent="1" vertex="1">
                    <mxGeometry x="200" y="420" width="120" height="60" as="geometry"/>
                </mxCell>
                <mxCell id="catalog_main" value="Lihat Katalog" style="ellipse;whiteSpace=wrap;html=1;fillColor=#ffffff;strokeColor=#000000;fontSize=11;" parent="1" vertex="1">
                    <mxGeometry x="400" y="420" width="120" height="60" as="geometry"/>
                </mxCell>
                <mxCell id="cart_main" value="Shopping Cart" style="ellipse;whiteSpace=wrap;html=1;fillColor=#ffffff;strokeColor=#000000;fontSize=11;" parent="1" vertex="1">
                    <mxGeometry x="600" y="420" width="120" height="60" as="geometry"/>
                </mxCell>
                <mxCell id="checkout_main" value="Checkout" style="ellipse;whiteSpace=wrap;html=1;fillColor=#ffffff;strokeColor=#000000;fontSize=11;" parent="1" vertex="1">
                    <mxGeometry x="800" y="420" width="120" height="60" as="geometry"/>
                </mxCell>
                <mxCell id="tracking_main" value="Tracking" style="ellipse;whiteSpace=wrap;html=1;fillColor=#ffffff;strokeColor=#000000;fontSize=11;" parent="1" vertex="1">
                    <mxGeometry x="1000" y="420" width="120" height="60" as="geometry"/>
                </mxCell>
                <mxCell id="review_main" value="Review" style="ellipse;whiteSpace=wrap;html=1;fillColor=#ffffff;strokeColor=#000000;fontSize=11;" parent="1" vertex="1">
                    <mxGeometry x="1200" y="420" width="120" height="60" as="geometry"/>
                </mxCell>
                <mxCell id="login_main" value="Login" style="ellipse;whiteSpace=wrap;html=1;fillColor=#ffffff;strokeColor=#000000;fontSize=11;" parent="1" vertex="1">
                    <mxGeometry x="200" y="520" width="120" height="60" as="geometry"/>
                </mxCell>
                <mxCell id="logout_main" value="Logout" style="ellipse;whiteSpace=wrap;html=1;fillColor=#ffffff;strokeColor=#000000;fontSize=11;" parent="1" vertex="1">
                    <mxGeometry x="400" y="520" width="120" height="60" as="geometry"/>
                </mxCell>
                <mxCell id="profile_main" value="Update Profil" style="ellipse;whiteSpace=wrap;html=1;fillColor=#ffffff;strokeColor=#000000;fontSize=11;" parent="1" vertex="1">
                    <mxGeometry x="600" y="520" width="120" height="60" as="geometry"/>
                </mxCell>
                <mxCell id="reset_main" value="Reset Password" style="ellipse;whiteSpace=wrap;html=1;fillColor=#ffffff;strokeColor=#000000;fontSize=11;" parent="1" vertex="1">
                    <mxGeometry x="800" y="520" width="120" height="60" as="geometry"/>
                </mxCell>
                <mxCell id="conn1" value="" style="endArrow=classic;html=1;rounded=0;exitX=1;exitY=0.5;exitDx=0;exitDy=0;entryX=0;entryY=0.5;entryDx=0;entryDy=0;strokeColor=#000000;" parent="1" source="actor1" target="kpi_main" edge="1">
                    <mxGeometry width="50" height="50" relative="1" as="geometry">
                        <mxPoint x="400" y="400" as="sourcePoint"/>
                        <mxPoint x="450" y="350" as="targetPoint"/>
                    </mxGeometry>
                </mxCell>
                <mxCell id="conn2" value="" style="endArrow=classic;html=1;rounded=0;exitX=1;exitY=0.5;exitDx=0;exitDy=0;entryX=0;entryY=0.5;entryDx=0;entryDy=0;strokeColor=#000000;" parent="1" source="actor1" target="report_main" edge="1">
                    <mxGeometry width="50" height="50" relative="1" as="geometry">
                        <mxPoint x="400" y="400" as="sourcePoint"/>
                        <mxPoint x="450" y="350" as="targetPoint"/>
                    </mxGeometry>
                </mxCell>
                <mxCell id="conn3" value="" style="endArrow=classic;html=1;rounded=0;exitX=1;exitY=0.5;exitDx=0;exitDy=0;entryX=0;entryY=0.5;entryDx=0;entryDy=0;strokeColor=#000000;" parent="1" source="actor1" target="history_main" edge="1">
                    <mxGeometry width="50" height="50" relative="1" as="geometry">
                        <mxPoint x="400" y="400" as="sourcePoint"/>
                        <mxPoint x="450" y="350" as="targetPoint"/>
                    </mxGeometry>
                </mxCell>
                <mxCell id="conn4" value="" style="endArrow=classic;html=1;rounded=0;exitX=1;exitY=0.5;exitDx=0;exitDy=0;entryX=0;entryY=0.5;entryDx=0;entryDy=0;strokeColor=#000000;" parent="1" source="actor1" target="perf_main" edge="1">
                    <mxGeometry width="50" height="50" relative="1" as="geometry">
                        <mxPoint x="400" y="400" as="sourcePoint"/>
                        <mxPoint x="450" y="350" as="targetPoint"/>
                    </mxGeometry>
                </mxCell>
                <mxCell id="conn5" value="" style="endArrow=classic;html=1;rounded=0;exitX=1;exitY=0.5;exitDx=0;exitDy=0;entryX=0;entryY=0.5;entryDx=0;entryDy=0;strokeColor=#000000;" parent="1" source="actor2" target="stats_main" edge="1">
                    <mxGeometry width="50" height="50" relative="1" as="geometry">
                        <mxPoint x="400" y="400" as="sourcePoint"/>
                        <mxPoint x="450" y="350" as="targetPoint"/>
                    </mxGeometry>
                </mxCell>
                <mxCell id="conn6" value="" style="endArrow=classic;html=1;rounded=0;exitX=1;exitY=0.5;exitDx=0;exitDy=0;entryX=0;entryY=0.5;entryDx=0;entryDy=0;strokeColor=#000000;" parent="1" source="actor2" target="order_main" edge="1">
                    <mxGeometry width="50" height="50" relative="1" as="geometry">
                        <mxPoint x="400" y="400" as="sourcePoint"/>
                        <mxPoint x="450" y="350" as="targetPoint"/>
                    </mxGeometry>
                </mxCell>
                <mxCell id="conn7" value="" style="endArrow=classic;html=1;rounded=0;exitX=1;exitY=0.5;exitDx=0;exitDy=0;entryX=0;entryY=0.5;entryDx=0;entryDy=0;strokeColor=#000000;" parent="1" source="actor2" target="user_main" edge="1">
                    <mxGeometry width="50" height="50" relative="1" as="geometry">
                        <mxPoint x="400" y="400" as="sourcePoint"/>
                        <mxPoint x="450" y="350" as="targetPoint"/>
                    </mxGeometry>
                </mxCell>
                <mxCell id="conn8" value="" style="endArrow=classic;html=1;rounded=0;exitX=1;exitY=0.5;exitDx=0;exitDy=0;entryX=0;entryY=0.5;entryDx=0;entryDy=0;strokeColor=#000000;" parent="1" source="actor2" target="category_main" edge="1">
                    <mxGeometry width="50" height="50" relative="1" as="geometry">
                        <mxPoint x="400" y="400" as="sourcePoint"/>
                        <mxPoint x="450" y="350" as="targetPoint"/>
                    </mxGeometry>
                </mxCell>
                <mxCell id="conn9" value="" style="endArrow=classic;html=1;rounded=0;exitX=1;exitY=0.5;exitDx=0;exitDy=0;entryX=0;entryY=0.5;entryDx=0;entryDy=0;strokeColor=#000000;" parent="1" source="actor3" target="search_main" edge="1">
                    <mxGeometry width="50" height="50" relative="1" as="geometry">
                        <mxPoint x="400" y="400" as="sourcePoint"/>
                        <mxPoint x="450" y="350" as="targetPoint"/>
                    </mxGeometry>
                </mxCell>
                <mxCell id="conn10" value="" style="endArrow=classic;html=1;rounded=0;exitX=1;exitY=0.5;exitDx=0;exitDy=0;entryX=0;entryY=0.5;entryDx=0;entryDy=0;strokeColor=#000000;" parent="1" source="actor3" target="transaction_main" edge="1">
                    <mxGeometry width="50" height="50" relative="1" as="geometry">
                        <mxPoint x="400" y="400" as="sourcePoint"/>
                        <mxPoint x="450" y="350" as="targetPoint"/>
                    </mxGeometry>
                </mxCell>
                <mxCell id="conn11" value="" style="endArrow=classic;html=1;rounded=0;exitX=1;exitY=0.5;exitDx=0;exitDy=0;entryX=0;entryY=0.5;entryDx=0;entryDy=0;strokeColor=#000000;" parent="1" source="actor3" target="barcode_main" edge="1">
                    <mxGeometry width="50" height="50" relative="1" as="geometry">
                        <mxPoint x="400" y="400" as="sourcePoint"/>
                        <mxPoint x="450" y="350" as="targetPoint"/>
                    </mxGeometry>
                </mxCell>
                <mxCell id="conn12" value="" style="endArrow=classic;html=1;rounded=0;exitX=1;exitY=0.5;exitDx=0;exitDy=0;entryX=0;entryY=0.5;entryDx=0;entryDy=0;strokeColor=#000000;" parent="1" source="actor3" target="stock_main" edge="1">
                    <mxGeometry width="50" height="50" relative="1" as="geometry">
                        <mxPoint x="400" y="400" as="sourcePoint"/>
                        <mxPoint x="450" y="350" as="targetPoint"/>
                    </mxGeometry>
                </mxCell>
                <mxCell id="conn13" value="" style="endArrow=classic;html=1;rounded=0;exitX=1;exitY=0.5;exitDx=0;exitDy=0;entryX=0;entryY=0.5;entryDx=0;entryDy=0;strokeColor=#000000;" parent="1" source="actor3" target="total_main" edge="1">
                    <mxGeometry width="50" height="50" relative="1" as="geometry">
                        <mxPoint x="400" y="400" as="sourcePoint"/>
                        <mxPoint x="450" y="350" as="targetPoint"/>
                    </mxGeometry>
                </mxCell>
                <mxCell id="conn14" value="" style="endArrow=classic;html=1;rounded=0;exitX=1;exitY=0.5;exitDx=0;exitDy=0;entryX=0;entryY=0.5;entryDx=0;entryDy=0;strokeColor=#000000;" parent="1" source="actor3" target="receipt_main" edge="1">
                    <mxGeometry width="50" height="50" relative="1" as="geometry">
                        <mxPoint x="400" y="400" as="sourcePoint"/>
                        <mxPoint x="450" y="350" as="targetPoint"/>
                    </mxGeometry>
                </mxCell>
                <mxCell id="conn15" value="" style="endArrow=classic;html=1;rounded=0;exitX=1;exitY=0.5;exitDx=0;exitDy=0;entryX=0;entryY=0.5;entryDx=0;entryDy=0;strokeColor=#000000;" parent="1" source="actor4" target="register_main" edge="1">
                    <mxGeometry width="50" height="50" relative="1" as="geometry">
                        <mxPoint x="400" y="400" as="sourcePoint"/>
                        <mxPoint x="450" y="350" as="targetPoint"/>
                    </mxGeometry>
                </mxCell>
                <mxCell id="conn16" value="" style="endArrow=classic;html=1;rounded=0;exitX=1;exitY=0.5;exitDx=0;exitDy=0;entryX=0;entryY=0.5;entryDx=0;entryDy=0;strokeColor=#000000;" parent="1" source="actor4" target="catalog_main" edge="1">
                    <mxGeometry width="50" height="50" relative="1" as="geometry">
                        <mxPoint x="400" y="400" as="sourcePoint"/>
                        <mxPoint x="450" y="350" as="targetPoint"/>
                    </mxGeometry>
                </mxCell>
                <mxCell id="conn17" value="" style="endArrow=classic;html=1;rounded=0;exitX=1;exitY=0.5;exitDx=0;exitDy=0;entryX=0;entryY=0.5;entryDx=0;entryDy=0;strokeColor=#000000;" parent="1" source="actor4" target="cart_main" edge="1">
                    <mxGeometry width="50" height="50" relative="1" as="geometry">
                        <mxPoint x="400" y="400" as="sourcePoint"/>
                        <mxPoint x="450" y="350" as="targetPoint"/>
                    </mxGeometry>
                </mxCell>
                <mxCell id="conn18" value="" style="endArrow=classic;html=1;rounded=0;exitX=1;exitY=0.5;exitDx=0;exitDy=0;entryX=0;entryY=0.5;entryDx=0;entryDy=0;strokeColor=#000000;" parent="1" source="actor4" target="checkout_main" edge="1">
                    <mxGeometry width="50" height="50" relative="1" as="geometry">
                        <mxPoint x="400" y="400" as="sourcePoint"/>
                        <mxPoint x="450" y="350" as="targetPoint"/>
                    </mxGeometry>
                </mxCell>
                <mxCell id="conn19" value="" style="endArrow=classic;html=1;rounded=0;exitX=1;exitY=0.5;exitDx=0;exitDy=0;entryX=0;entryY=0.5;entryDx=0;entryDy=0;strokeColor=#000000;" parent="1" source="actor4" target="tracking_main" edge="1">
                    <mxGeometry width="50" height="50" relative="1" as="geometry">
                        <mxPoint x="400" y="400" as="sourcePoint"/>
                        <mxPoint x="450" y="350" as="targetPoint"/>
                    </mxGeometry>
                </mxCell>
                <mxCell id="conn20" value="" style="endArrow=classic;html=1;rounded=0;exitX=1;exitY=0.5;exitDx=0;exitDy=0;entryX=0;entryY=0.5;entryDx=0;entryDy=0;strokeColor=#000000;" parent="1" source="actor4" target="review_main" edge="1">
                    <mxGeometry width="50" height="50" relative="1" as="geometry">
                        <mxPoint x="400" y="400" as="sourcePoint"/>
                        <mxPoint x="450" y="350" as="targetPoint"/>
                    </mxGeometry>
                </mxCell>
                <mxCell id="conn21" value="" style="endArrow=classic;html=1;rounded=0;exitX=1;exitY=0.5;exitDx=0;exitDy=0;entryX=0;entryY=0.5;entryDx=0;entryDy=0;strokeColor=#000000;" parent="1" source="actor1" target="login_main" edge="1">
                    <mxGeometry width="50" height="50" relative="1" as="geometry">
                        <mxPoint x="400" y="400" as="sourcePoint"/>
                        <mxPoint x="450" y="350" as="targetPoint"/>
                    </mxGeometry>
                </mxCell>
                <mxCell id="conn22" value="" style="endArrow=classic;html=1;rounded=0;exitX=1;exitY=0.5;exitDx=0;exitDy=0;entryX=0;entryY=0.5;entryDx=0;entryDy=0;strokeColor=#000000;" parent="1" source="actor2" target="login_main" edge="1">
                    <mxGeometry width="50" height="50" relative="1" as="geometry">
                        <mxPoint x="400" y="400" as="sourcePoint"/>
                        <mxPoint x="450" y="350" as="targetPoint"/>
                    </mxGeometry>
                </mxCell>
                <mxCell id="conn23" value="" style="endArrow=classic;html=1;rounded=0;exitX=1;exitY=0.5;exitDx=0;exitDy=0;entryX=0;entryY=0.5;entryDx=0;entryDy=0;strokeColor=#000000;" parent="1" source="actor3" target="login_main" edge="1">
                    <mxGeometry width="50" height="50" relative="1" as="geometry">
                        <mxPoint x="400" y="400" as="sourcePoint"/>
                        <mxPoint x="450" y="350" as="targetPoint"/>
                    </mxGeometry>
                </mxCell>
                <mxCell id="conn24" value="" style="endArrow=classic;html=1;rounded=0;exitX=1;exitY=0.5;exitDx=0;exitDy=0;entryX=0;entryY=0.5;entryDx=0;entryDy=0;strokeColor=#000000;" parent="1" source="actor4" target="login_main" edge="1">
                    <mxGeometry width="50" height="50" relative="1" as="geometry">
                        <mxPoint x="400" y="400" as="sourcePoint"/>
                        <mxPoint x="450" y="350" as="targetPoint"/>
                    </mxGeometry>
                </mxCell>
                <mxCell id="legend" value="LEGENDA:&#10;• Actor: Pemilik, Admin, Kasir, Pelanggan&#10;• Use Case: Fitur utama sistem&#10;• System Boundary: Batas sistem Fashion Park&#10;• Association: Hubungan aktor dengan use case" style="text;html=1;strokeColor=#000000;fillColor=#ffffff;align=left;verticalAlign=top;whiteSpace=wrap;rounded=1;fontSize=10;" parent="1" vertex="1">
                    <mxGeometry x="180" y="750" width="300" height="100" as="geometry"/>
                </mxCell>
            </root>
        </mxGraphModel>
    </diagram>
</mxfile>